<svg data-name="Layer 1" xmlns="http://www.w3.org/2000/svg" viewBox="0 0 215.01 77.05"><path d="M215.01.05H.01v6.92h215zm0 70.13H.01v6.87h215zm-7.65-31.72c0-6-.65-9.67-5.18-9.67h-3.79v19.26h3.79c4.53 0 5.18-3.66 5.18-9.68m7.65 0c0 9.32-2.95 16.28-12.83 16.28h-10.6a.66.66 0 0 1-.7-.7V22.83a.66.66 0 0 1 .7-.7h10.6c9.88 0 12.83 7 12.83 16.28m-39.45 10.37v5.21a.66.66 0 0 1-.7.7h-20.39a.66.66 0 0 1-.7-.7V22.83a.66.66 0 0 1 .7-.7h20.35a.66.66 0 0 1 .7.7v5.22a.66.66 0 0 1-.7.7h-13.53v6.3h12.39a.66.66 0 0 1 .7.7v5.21a.66.66 0 0 1-.7.7h-12.39v6.49h13.58a.63.63 0 0 1 .69.68m-36.77-3.37c0 7-4.19 10-12.39 10-7.65 0-11.41-2.6-12-9.11a.64.64 0 0 1 .65-.77h5.6c.42 0 .58.26.7.63.61 1.67 2.09 2.49 5 2.49 3.12 0 5.05-.88 5.05-3s-.7-3.32-5.21-4.21c-5.77-1.14-11.35-3.53-11.35-10.09 0-6 3.65-9.7 11.35-9.7 6.86 0 11 2.6 11.58 8.88a.69.69 0 0 1-.65.84h-5.11c-.42 0-.58-.33-.7-.7-.44-1.35-1.91-2.32-4.93-2.32-2.77 0-4.16 1.28-4.16 3 0 1.39-.09 2.84 4.05 3.63 6.1 1.13 12.54 3.27 12.54 10.41M84.88 37.5h4.9c2.81 0 3.91-.49 3.91-4.39s-1.09-4.37-3.91-4.37h-4.9zm15.64 17.19h-5.77a.79.79 0 0 1-.81-.54l-4.44-10h-4.63v9.88a.66.66 0 0 1-.7.7h-6.16a.68.68 0 0 1-.72-.7v-31.2a.68.68 0 0 1 .72-.7h11.72c8.79 0 11.09 4 11.09 11 0 4.88-1.12 8.28-4.72 9.9l4.91 10.83c.22.5 0 .83-.53.83m-38.59-5.91v5.21a.66.66 0 0 1-.7.7H40.8a.66.66 0 0 1-.7-.7V22.83a.66.66 0 0 1 .7-.7h20.35a.66.66 0 0 1 .7.7v5.22a.66.66 0 0 1-.7.7H47.61v6.3h12.4a.66.66 0 0 1 .7.7v5.21a.66.66 0 0 1-.7.7h-12.4v6.49h13.58a.64.64 0 0 1 .7.68m-42.78-26.7h6.25c.51 0 .65.33.56.79l-7.49 31.2a.76.76 0 0 1-.79.56H8.29a.76.76 0 0 1-.79-.56L.01 22.92c-.12-.46.05-.79.56-.79H6.8a.71.71 0 0 1 .79.56l5 24.18h.7l5-24.18a.71.71 0 0 1 .79-.56"/></svg>